<svg width="210" height="236" viewBox="0 0 210 236" fill="none" xmlns="http://www.w3.org/2000/svg">
<path d="M2.82324 85.2868H205.425L207.543 181.945L104.477 235.012L2.82325 181.945L2.82324 85.2868Z" fill="white"/>
<ellipse cx="105.184" cy="32.2195" rx="36.0024" ry="32.2195" fill="white"/>
<path d="M97.791 0.598663C81.1791 3.90855 69.6448 16.3066 69.3313 31.1169L69.2687 36.1659L34.6657 54.0056L0.0626866 71.8453L0 126.543V181.24L51.4657 207.887C79.8 222.529 103.496 234.759 104.06 234.983C104.875 235.376 117.851 228.869 157.594 208.392L210 181.24V126.543L209.937 71.8453L175.648 54.1178L141.358 36.4464L140.919 30.8364C140.731 27.807 140.042 23.9922 139.478 22.4776C135.654 12.3796 127.316 4.80614 116.158 1.49625C110.955 -0.0745392 102.994 -0.467224 97.791 0.598663ZM102.555 1.83286C102.43 2.39384 102.116 3.90854 101.866 5.19884C101.49 7.49893 101.239 7.66722 95.0955 11.0893L88.7015 14.6236H83.6866C78.8597 14.6236 78.6716 14.5675 78.4836 13.2772C78.2955 12.2674 79.0478 11.2576 81.6179 9.06972C85.4418 5.87202 90.394 3.40366 96.0985 1.94505C101.301 0.598663 102.994 0.598648 102.555 1.83286ZM113.713 1.77675C118.478 2.84264 125.248 5.98422 127.567 8.17212C129.197 9.68681 129.26 9.91122 128.507 11.6503C127.066 14.7919 126.878 14.9041 120.797 14.9041H115.155L109.137 11.482C105.815 9.57462 102.994 7.94774 102.869 7.83554C102.743 7.77943 102.869 6.15253 103.119 4.30124L103.558 0.879166H106.693C108.448 0.879166 111.582 1.27185 113.713 1.77675ZM90.5194 21.6361L92.9015 27.7509L89.6418 32.7999C87.8866 35.6049 86.1313 38.0172 85.8179 38.1855C85.5045 38.4099 83.0597 38.3538 80.3642 38.1855L75.5373 37.7928L73.0925 33.1365C71.7761 30.5559 70.8358 28.1436 70.9612 27.6948C71.0239 27.246 72.8418 24.3289 74.8478 21.1873L78.609 15.4651H83.3731H88.2L90.5194 21.6361ZM130.89 21.019C133.021 24.0484 134.776 26.7972 134.776 27.0217C134.776 27.3021 133.648 30.051 132.331 33.1365L129.887 38.7465L123.618 38.9148L117.287 39.0831L113.463 33.978C111.394 31.173 109.513 28.5924 109.325 28.1436C109.137 27.7509 110.328 24.7216 111.958 21.4678L114.904 15.4651H120.985H127.066L130.89 21.019ZM139.791 31.6218C139.791 37.2879 138.725 41.6076 136.03 46.2638C132.958 51.7616 131.015 49.7421 131.015 40.9344C131.015 39.6441 132.018 36.3342 133.46 33.1365C135.842 27.6387 136.343 27.0777 139.352 26.7411C139.603 26.685 139.791 28.929 139.791 31.6218ZM111.896 33.5292C113.964 36.3342 115.719 38.8026 115.845 39.027C115.907 39.1953 114.403 41.832 112.46 44.8053L108.949 50.2469H101.615H94.3433L90.7701 44.7492C88.7642 41.7198 87.1343 39.027 87.1343 38.8026C87.1343 38.5782 88.6388 36.1659 90.394 33.417L93.7164 28.368H100.925H108.134L111.896 33.5292ZM74.9731 43.0662L75.2866 48.2834L73.6567 45.6468C71.7134 42.393 70.209 36.8952 70.2716 33.1365V30.3315L72.4657 34.0902C74.3463 37.4001 74.6597 38.5782 74.9731 43.0662ZM132.018 52.0982C128.946 55.6886 122.866 59.4473 116.91 61.4108L113.149 62.645L115.657 60.401C119.23 57.2033 130.451 50.303 132.143 50.2469H133.585L132.018 52.0982ZM112.773 54.8471L116.785 58.3814L113.713 60.7376C111.143 62.8133 110.266 63.1499 107.821 63.206C98.606 63.3743 96.6627 62.8694 92.1493 59.3351L89.391 57.1472L91.8358 54.23L94.2806 51.3689H101.552H108.761L112.773 54.8471ZM88.2 57.9326C91.0209 59.6717 93.2149 61.2425 93.0896 61.3547C92.5254 61.9157 84.6896 57.5399 81.8687 55.1276C78.9851 52.6592 78.9224 52.4909 80.8657 53.5568C82.0567 54.1739 85.3791 56.1374 88.2 57.9326ZM67.3254 97.2585C68.391 97.7634 69.5821 98.1561 69.8955 98.2122C71.1493 98.2122 72.7791 102.083 72.5284 104.495C71.9642 109.208 68.203 111.957 61.809 112.293C57.9851 112.462 58.7373 112.237 63.8149 111.62C67.3881 111.227 71.2746 108.198 71.8388 105.393C72.2776 103.317 71.2746 99.3342 70.0836 98.7171C69.6448 98.4366 69.5821 98.5488 69.8955 99.0537C70.8985 100.456 71.3373 103.654 70.7731 105.449C68.8298 111.844 56.9821 113.247 52.0925 107.693C50.0866 105.393 50.2746 101.242 52.5313 99.0537C55.791 95.7438 62.4985 94.9023 67.3254 97.2585ZM126.188 97.2024C127.254 97.7073 128.382 98.1561 128.633 98.2122C128.884 98.2122 129.448 98.5488 129.887 98.9976C130.576 99.6708 130.576 99.7269 129.824 99.3342C129.134 98.9976 129.009 99.1098 129.385 99.9513C131.14 103.934 129.887 107.749 126.125 109.825C123.367 111.34 117.287 111.508 114.278 110.105C110.015 108.086 108.448 103.934 110.579 100.232C113.024 96.0804 120.734 94.6218 126.188 97.2024ZM42.9403 97.6512C44.006 98.2683 45.009 98.7732 45.2597 98.7732C45.4478 98.7732 45.8866 98.9976 46.2 99.2781C46.5134 99.5586 46.3881 99.6147 45.8866 99.3903C45.2597 99.0537 45.197 99.3342 45.5731 100.568C46.3881 103.093 45.9493 106.403 44.6328 107.974C42.8776 110.105 39.994 110.779 32.1582 110.779C26.2657 110.835 25.0746 110.666 25.0746 109.993C25.0746 109.432 25.7015 109.152 26.9552 109.152H28.8358V103.542V97.9317H26.9552C25.6388 97.9317 25.0746 97.6512 25.0746 97.0341C25.0746 96.2487 26.0776 96.1365 33.0985 96.3048C39.806 96.4731 41.4358 96.6975 42.9403 97.6512ZM92.7761 97.0902C92.7761 97.539 92.2119 97.9317 91.5224 97.9317C89.7045 97.9317 89.9552 98.6049 92.7134 101.354L95.2209 103.822L97.1015 101.859C100.299 98.6049 100.612 97.9317 98.7313 97.9317C97.7284 97.9317 97.1642 97.5951 97.1642 97.0902C97.1642 96.417 98.1045 96.2487 101.866 96.2487C105.627 96.2487 106.567 96.417 106.567 97.0902C106.567 97.539 106.003 97.9317 105.313 97.9317C103.496 97.9317 96.5373 105.561 96.5373 107.581C96.5373 108.927 96.7881 109.152 98.4179 109.152C99.6716 109.152 100.299 109.432 100.299 109.993C100.299 110.666 99.2955 110.835 94.9702 110.835C90.6448 110.835 89.6418 110.666 89.6418 109.993C89.6418 109.432 90.2687 109.152 91.5224 109.152C93.1522 109.152 93.403 108.927 93.403 107.581C93.403 105.337 86.3821 97.9317 84.2507 97.9317C83.3104 97.9317 82.7463 97.5951 82.7463 97.0902C82.7463 96.417 83.7493 96.2487 87.7612 96.2487C91.7731 96.2487 92.7761 96.417 92.7761 97.0902ZM144.179 97.0341C144.179 97.539 143.427 97.9317 142.487 98.0439C140.857 98.2122 140.731 98.4366 140.543 101.017C140.293 104.047 141.358 108.03 142.361 108.03C142.737 108.03 142.8 107.693 142.549 107.3C142.299 106.908 142.361 106.795 142.675 107.076C142.988 107.356 143.239 107.861 143.239 108.198C143.239 109.264 148.442 109.376 150.197 108.31C151.576 107.525 151.701 107.076 151.701 102.7C151.701 97.9878 151.701 97.9317 150.134 97.9317C149.131 97.9317 148.567 97.5951 148.567 97.0902C148.567 96.417 149.57 96.2487 153.582 96.2487C157.594 96.2487 158.597 96.417 158.597 97.0902C158.597 97.6512 157.97 97.9317 156.716 97.9317H154.836V102.139C154.836 106.964 154.146 108.591 151.639 109.937C148.191 111.732 140.481 110.891 138.725 108.478C138.475 108.086 138.099 105.617 137.91 102.981C137.597 98.2683 137.597 98.2122 135.904 98.0439C134.901 97.9317 134.149 97.539 134.149 97.0341C134.149 96.417 135.215 96.2487 139.164 96.2487C143.113 96.2487 144.179 96.417 144.179 97.0341ZM179.597 97.0341C180.788 97.4829 181.791 97.7073 181.791 97.539C181.791 97.3707 182.23 97.539 182.731 97.9317C184.299 99.0537 183.922 102.251 182.104 103.822C181.101 104.608 180.725 105.281 181.101 105.505C181.478 105.673 182.104 106.403 182.418 107.076C182.919 107.974 182.669 107.805 181.54 106.627L179.973 104.944L181.478 103.542C183.107 102.027 183.609 98.8854 182.418 98.2122C182.042 97.9878 181.979 98.5488 182.167 99.6147C182.481 100.961 182.293 101.634 181.164 102.7C180.349 103.486 179.284 104.103 178.782 104.103C178.218 104.103 178.594 104.832 179.848 106.066C180.913 107.188 181.791 108.31 181.791 108.591C181.791 108.927 182.355 109.152 183.045 109.152C183.734 109.152 184.299 109.544 184.299 109.993C184.299 110.666 183.421 110.835 179.91 110.835C176.4 110.835 175.522 110.666 175.522 109.993C175.522 109.488 176.087 109.152 176.839 109.152C178.782 109.152 178.093 107.469 175.585 105.954C174.394 105.225 172.513 104.664 171.385 104.664C169.316 104.664 169.254 104.72 169.254 106.908C169.254 108.927 169.442 109.152 170.821 109.152C171.824 109.152 172.388 109.488 172.388 109.993C172.388 110.666 171.448 110.835 167.687 110.835C163.925 110.835 162.985 110.666 162.985 109.993C162.985 109.488 163.549 109.152 164.552 109.152H166.119V103.542V97.9317H164.239C162.985 97.9317 162.358 97.6512 162.358 97.0902C162.358 95.9121 176.463 95.856 179.597 97.0341ZM94.0925 99.2781C93.6537 99.783 93.7164 100.344 94.406 101.354C95.1582 102.364 94.9701 102.307 93.6537 101.017C92.2119 99.6147 92.0866 99.2781 92.9642 99.1659C93.5284 99.0537 94.0925 98.4366 94.0925 97.7634C94.1552 96.7536 94.2179 96.6975 94.4687 97.539C94.6567 98.1 94.4687 98.8854 94.0925 99.2781ZM108.197 98.7732C108.009 99.222 107.069 99.6147 106.066 99.6147C104.624 99.6147 103.684 100.288 101.113 103.093C99.3582 105.056 97.791 107.02 97.603 107.469C97.2896 108.198 97.2269 108.198 97.2269 107.469C97.1642 106.964 98.7313 104.888 100.675 102.812C103.496 99.7269 104.499 99.0537 106.003 99.0537C107.445 99.0537 107.821 98.8293 107.884 97.7634C107.884 97.0902 108.072 96.8658 108.26 97.2585C108.448 97.6512 108.385 98.3244 108.197 98.7732ZM159.851 98.2122C159.851 99.4464 159.6 99.6147 157.845 99.5586C155.901 99.4464 155.901 99.4464 157.531 99.222C158.722 99.0537 159.224 98.661 159.224 97.8756C159.224 97.3146 159.349 96.8097 159.537 96.8097C159.725 96.8097 159.851 97.4268 159.851 98.2122ZM145.433 98.4927C145.433 99.3342 144.994 99.6147 143.866 99.6147C142.424 99.6147 142.361 99.8391 142.11 103.093L141.922 106.627L141.797 102.812C141.672 99.1659 141.734 99.0537 143.239 99.0537C144.242 99.0537 144.806 98.7171 144.806 98.2122C144.806 97.7634 144.931 97.3707 145.119 97.3707C145.307 97.3707 145.433 97.8756 145.433 98.4927ZM28.0209 99.3903C27.8328 99.5586 27.2687 99.6147 26.8298 99.4464C26.3284 99.2781 26.5164 99.1098 27.206 99.1098C27.8955 99.0537 28.2716 99.222 28.0209 99.3903ZM85.6925 99.3903C85.5045 99.5586 84.9403 99.6147 84.5015 99.4464C84 99.2781 84.1881 99.1098 84.8776 99.1098C85.5672 99.0537 85.9433 99.222 85.6925 99.3903ZM137.096 99.3903C136.907 99.5586 136.343 99.6147 135.904 99.4464C135.403 99.2781 135.591 99.1098 136.281 99.1098C136.97 99.0537 137.346 99.222 137.096 99.3903ZM150.887 99.3903C150.699 99.5586 150.134 99.6147 149.696 99.4464C149.194 99.2781 149.382 99.1098 150.072 99.1098C150.761 99.0537 151.137 99.222 150.887 99.3903ZM47.6418 103.429C47.6418 107.076 44.3194 111.396 41.4358 111.396C40.8716 111.396 41.4358 110.947 42.6269 110.386C45.6358 109.096 47.1403 106.291 46.8269 102.812C46.6388 101.186 46.7642 100.4 47.0776 100.849C47.391 101.242 47.6418 102.42 47.6418 103.429ZM131.642 103.822C131.642 105.056 131.078 106.852 130.388 107.917C129.072 109.769 125.749 111.957 124.119 111.957C123.618 111.957 124.433 111.396 125.937 110.722C129.699 109.039 131.14 106.852 130.827 103.093C130.701 101.41 130.827 100.456 131.078 100.849C131.391 101.242 131.642 102.588 131.642 103.822ZM155.463 108.03C154.71 109.713 151.388 111.957 149.758 111.957C149.257 111.901 149.758 111.564 150.824 111.171C153.143 110.274 155.463 107.805 155.525 106.122C155.525 105.449 155.713 105.281 155.901 105.673C156.09 106.066 155.901 107.132 155.463 108.03ZM172.576 106.178C171.385 106.347 170.445 106.795 170.319 107.356C170.131 108.03 170.006 107.917 169.943 107.02C169.881 105.954 170.131 105.786 172.263 105.898C174.519 105.954 174.519 105.954 172.576 106.178ZM101.552 110.835C101.552 111.901 101.176 111.957 96.0985 111.844L90.5821 111.732L95.7851 111.564C99.797 111.396 100.925 111.171 100.925 110.554C100.925 110.105 101.051 109.713 101.239 109.713C101.427 109.713 101.552 110.218 101.552 110.835ZM173.642 110.835C173.642 111.901 173.266 111.957 168.501 111.844L163.299 111.732L168.188 111.564C171.887 111.396 173.015 111.171 173.015 110.554C173.015 110.105 173.14 109.713 173.328 109.713C173.516 109.713 173.642 110.218 173.642 110.835ZM186.179 110.835C186.179 111.901 185.803 111.957 181.039 111.844L175.836 111.732L180.725 111.564C184.424 111.396 185.552 111.171 185.552 110.554C185.552 110.105 185.678 109.713 185.866 109.713C186.054 109.713 186.179 110.218 186.179 110.835ZM56.7313 111.396C57.5463 111.732 57.6716 111.901 57.0448 111.901C56.5433 111.901 55.6657 111.676 55.1642 111.396C54.0358 110.722 55.0388 110.722 56.7313 111.396ZM36.8597 111.788C34.8537 111.901 31.594 111.901 29.6507 111.788C27.6448 111.676 29.2746 111.62 33.2239 111.62C37.1731 111.62 38.803 111.676 36.8597 111.788ZM122.803 112.293C123.367 112.742 117.475 112.405 116.284 111.957C115.531 111.676 116.534 111.62 118.791 111.788C120.86 111.957 122.678 112.181 122.803 112.293ZM147.815 112.349C147.188 112.462 146.06 112.462 145.307 112.349C144.493 112.237 144.994 112.125 146.373 112.125C147.752 112.069 148.379 112.181 147.815 112.349ZM108.824 120.989C109.89 121.55 110.955 121.886 111.143 121.718C111.331 121.55 111.77 121.999 112.209 122.728C112.899 124.018 112.898 124.018 111.833 122.896L110.767 121.774L111.269 122.896C111.582 123.513 111.958 125.364 112.084 126.991C112.334 129.684 112.146 130.077 110.203 131.816C102.994 138.267 89.1403 133.218 92.1493 125.252C94.0299 119.979 102.931 117.679 108.824 120.989ZM87.7612 120.652C87.7612 121.157 87.197 121.494 86.194 121.494C84.6269 121.494 84.6269 121.55 84.6269 125.982C84.6269 131.479 83.6866 133.499 80.5522 134.397C76.603 135.575 70.8358 133.779 70.8358 131.367C70.8358 129.909 72.7791 129.852 74.0955 131.311C75.4119 132.826 78.1075 133.162 80.3015 132.153C81.3672 131.648 81.4925 130.918 81.4925 126.543V121.494H78.3582C75.9761 121.494 75.2239 121.269 75.2239 120.652C75.2239 119.979 76.3522 119.811 81.4925 119.811C86.6328 119.811 87.7612 119.979 87.7612 120.652ZM134.463 120.596C135.654 121.045 136.657 121.269 136.657 121.101C136.657 120.933 137.096 121.101 137.597 121.494C138.788 122.391 138.788 124.803 137.597 125.982C136.719 126.823 136.719 126.991 137.597 127.665C138.099 128.057 138.537 128.618 138.537 128.899C138.537 129.235 137.973 128.899 137.346 128.169C136.281 126.991 136.218 126.711 137.033 125.925C138.036 124.916 138.224 122.279 137.284 121.774C136.845 121.55 136.719 121.886 137.033 122.84C137.284 123.906 137.033 124.579 135.904 125.589L134.4 126.935L135.842 127.889C137.66 129.123 137.722 131.592 135.967 133.05C134.839 133.948 133.46 134.116 125.937 134.284C118.29 134.453 117.224 134.397 117.224 133.611C117.224 133.05 117.788 132.714 118.791 132.714H120.358V127.104V121.494H118.478C117.224 121.494 116.597 121.213 116.597 120.652C116.597 119.474 131.328 119.418 134.463 120.596ZM89.0149 122.616C89.0149 122.896 88.3254 123.177 87.4478 123.177C85.8806 123.177 85.8806 123.233 85.8806 127.552C85.8806 130.638 85.5672 132.265 84.8776 133.218C83.5612 134.845 80.3015 136.08 77.606 136.023C75.4746 135.967 75.7881 135.855 79.8627 135.238C81.1791 135.07 82.9343 134.284 83.7493 133.555C85.1284 132.321 85.2537 131.704 85.2537 127.44V122.672L87.009 122.447C87.9493 122.335 88.7642 122.167 88.8896 122.111C88.9522 122.111 89.0149 122.279 89.0149 122.616ZM80.1134 123.008C79.4866 123.121 78.3582 123.121 77.606 123.008C76.791 122.896 77.2925 122.784 78.6716 122.784C80.0507 122.728 80.6776 122.84 80.1134 123.008ZM119.543 122.952C119.355 123.12 118.791 123.177 118.352 123.008C117.851 122.84 118.039 122.672 118.728 122.672C119.418 122.616 119.794 122.784 119.543 122.952ZM113.964 127.384C113.964 128.282 113.839 128.226 113.463 127.104C112.773 125.196 112.773 123.738 113.463 125.14C113.776 125.757 113.964 126.767 113.964 127.384ZM112.397 131.704C110.078 135.238 102.304 137.145 97.791 135.294C96.6 134.789 96.1612 134.565 96.8507 134.733C100.048 135.631 104.185 135.631 106.881 134.733C109.764 133.723 112.773 131.087 112.898 129.46C112.898 128.843 113.024 128.787 113.275 129.235C113.4 129.628 113.024 130.694 112.397 131.704ZM138.6 131.648C138.287 132.377 137.409 133.499 136.657 134.116C135.403 135.126 134.337 135.238 126.376 135.294L117.537 135.35L126.376 135.014C136.03 134.621 137.346 134.228 138.224 131.199C138.412 130.413 138.725 129.909 138.913 130.021C139.039 130.189 138.913 130.918 138.6 131.648ZM75.7254 156.163C75.9134 156.668 75.5373 156.78 74.3463 156.5C72.2149 156.051 72.2149 157.005 74.3463 157.846C76.4776 158.744 76.2269 160.988 73.9701 161.212C72.2149 161.381 70.3343 160.483 71.0239 159.81C71.2746 159.585 72.0269 159.698 72.7164 160.09C73.6567 160.595 74.0328 160.595 74.3463 160.09C74.597 159.698 74.4716 159.305 74.0955 159.193C73.7194 159.08 72.7164 158.519 71.9642 157.958C70.7731 157.117 70.6478 156.836 71.4 156.051C72.403 154.985 75.2866 155.041 75.7254 156.163ZM80.2388 158.239C80.2388 160.595 80.0507 161.324 79.2985 161.324C78.5463 161.324 78.3582 160.595 78.3582 158.239C78.3582 155.883 78.5463 155.153 79.2985 155.153C80.0507 155.153 80.2388 155.883 80.2388 158.239ZM86.194 157.229L87.4478 159.361L87.6358 157.229C87.9493 154.031 89.0149 154.761 89.0149 158.239C89.0149 161.885 87.8239 162.39 86.0687 159.473L84.9403 157.678L84.7522 159.473C84.6269 160.651 84.1881 161.324 83.6239 161.324C82.997 161.324 82.7463 160.539 82.7463 158.239C82.7463 155.658 82.9343 155.153 83.8746 155.153C84.5642 155.153 85.5045 155.995 86.194 157.229ZM97.1642 155.995C98.1672 157.061 97.4776 157.902 96.4119 156.949C95.2836 155.939 93.403 156.163 93.3403 157.229C93.0895 160.09 94.3433 161.212 96.0358 159.81C97.4149 158.744 98.2925 159.249 97.1642 160.483C95.2209 162.559 91.5224 160.988 91.5224 158.015C91.5224 155.602 95.4716 154.144 97.1642 155.995ZM105.313 155.714C105.313 155.995 104.624 156.275 103.746 156.275C101.49 156.275 101.678 157.958 103.934 158.015L105.627 158.127L103.934 158.351C101.74 158.632 101.615 160.202 103.746 160.202C104.624 160.202 105.313 160.427 105.313 160.763C105.313 161.044 104.185 161.324 102.806 161.324H100.299V158.239V155.153H102.806C104.185 155.153 105.313 155.378 105.313 155.714ZM115.845 156.444C115.97 157.061 115.469 158.127 114.654 158.856L113.275 160.202H114.591C115.343 160.202 115.97 160.427 115.97 160.763C115.97 161.044 114.842 161.324 113.4 161.324H110.83L112.773 159.361C113.839 158.239 114.716 157.117 114.716 156.836C114.716 156.051 113.212 156.163 112.334 156.949C111.77 157.454 111.582 157.454 111.582 156.78C111.582 155.49 112.272 155.097 114.09 155.266C115.03 155.378 115.719 155.827 115.845 156.444ZM123.618 156.556C124.746 158.856 123.618 161.044 121.299 161.044C119.857 161.044 119.293 160.707 118.854 159.529C117.475 155.995 121.925 153.246 123.618 156.556ZM130.827 156.107C131.078 156.612 130.764 157.734 130.2 158.632C129.322 159.978 129.322 160.202 130.075 160.202C130.576 160.202 131.015 160.427 131.015 160.763C131.015 161.044 129.824 161.324 128.382 161.324H125.749L127.755 159.473C128.884 158.463 129.761 157.341 129.761 156.949C129.761 156.051 128.069 156.107 127.693 156.949C127.567 157.341 127.191 157.51 126.94 157.285C126.69 157.061 126.627 156.5 126.815 155.995C127.316 154.873 130.325 154.929 130.827 156.107ZM138.788 156.107C139.039 156.668 138.663 157.678 137.91 158.632C136.594 160.202 136.594 160.202 137.91 160.202C138.6 160.202 139.164 160.427 139.164 160.763C139.164 161.044 138.036 161.324 136.657 161.324C133.71 161.324 133.585 160.876 135.716 159.08C136.594 158.351 137.284 157.454 137.284 157.005C137.284 156.051 135.591 156.051 135.215 156.949C135.09 157.341 134.713 157.51 134.463 157.285C133.648 156.612 135.403 155.153 136.97 155.153C137.785 155.153 138.6 155.602 138.788 156.107ZM74.1582 185.279C74.9104 186.738 75.9761 188.028 76.4776 188.084C76.9791 188.14 78.4836 188.365 79.8627 188.533L82.3075 188.869L79.9254 191.057C77.6687 193.133 77.5433 193.301 77.9821 196.05C78.2328 197.621 78.2328 198.911 78.1075 198.911C77.9194 198.911 76.5403 198.35 75.0358 197.733L72.3403 196.555L69.6448 197.789C68.1403 198.462 66.8239 198.911 66.6985 198.743C66.5731 198.631 66.6985 197.284 67.0119 195.77L67.6388 193.021L65.006 191.001L62.3731 188.926L64.8806 188.533C66.2597 188.365 67.8269 188.14 68.3284 188.084C68.8298 188.028 69.9582 186.794 70.8358 185.279C71.7134 183.82 72.4657 182.642 72.591 182.642C72.6537 182.642 73.3433 183.82 74.1582 185.279ZM99.0448 188.14C99.9224 188.196 101.301 188.421 102.116 188.589C103.621 188.869 103.621 188.869 101.301 191.001C99.1075 193.021 99.0448 193.133 99.609 195.826C99.9224 197.397 100.11 198.687 99.9851 198.799C99.9224 198.911 98.5433 198.406 96.9134 197.677C94.0298 196.443 93.9672 196.443 91.6478 197.509C90.394 198.07 89.0776 198.687 88.7642 198.799C88.5134 198.967 88.4507 197.733 88.7015 196.106C89.1403 193.245 89.0776 193.133 86.8209 191.057L84.4388 188.869L86.8836 188.533C91.0209 187.916 91.209 187.747 92.7134 185.055L94.1552 182.418L95.7851 185.223C97.0388 187.243 97.9164 188.028 99.0448 188.14ZM117.537 185.391C118.666 187.747 118.979 187.916 123.116 188.533L125.561 188.869L123.242 191.001C120.985 193.077 120.922 193.245 121.361 196.05L121.8 198.967L118.854 197.733L115.97 196.443L113.087 197.733L110.14 198.967L110.516 195.938C110.955 193.077 110.83 192.852 108.761 191.057C106.379 188.982 106.693 188.308 110.015 188.252C112.585 188.252 113.149 187.804 114.403 185.055C114.967 183.708 115.657 182.755 115.907 182.923C116.158 183.035 116.91 184.157 117.537 185.391ZM139.478 185.447C140.857 187.916 141.296 188.252 143.113 188.308C144.179 188.308 145.621 188.533 146.248 188.701C147.188 189.094 147.063 189.374 145.119 191.057C142.925 192.965 142.863 193.133 143.239 195.938C143.49 197.565 143.427 198.911 143.239 198.911C142.988 198.911 141.672 198.35 140.355 197.677L137.91 196.443L135.027 197.733C133.397 198.406 132.018 198.855 131.83 198.743C131.704 198.631 131.893 197.284 132.269 195.826C132.958 193.133 132.896 193.077 130.639 191.001C128.319 188.869 128.319 188.869 129.824 188.589C130.639 188.421 132.018 188.196 132.896 188.14C134.024 188.028 134.901 187.243 136.03 185.335C136.907 183.82 137.66 182.642 137.722 182.642C137.848 182.642 138.6 183.877 139.478 185.447Z" fill="#03113C"/>
<path d="M57.2949 98.4927C53.5337 99.8391 52.7188 104.776 55.7277 107.525C57.2949 108.927 58.0471 109.152 60.8054 109.152C63.5636 109.152 64.3158 108.927 65.883 107.525C69.9576 103.822 67.1367 97.8756 61.3069 97.9878C59.8024 97.9878 57.9845 98.2122 57.2949 98.4927ZM61.4322 98.8854C58.486 99.3342 56.6054 100.232 55.8531 101.634C54.8501 103.654 54.9755 104.888 56.48 106.683L57.7964 108.31L56.1666 106.739C54.3486 105 54.1606 103.373 55.4143 101.354C56.48 99.6147 58.7367 98.4927 61.1188 98.6049C62.7486 98.661 62.8113 98.661 61.4322 98.8854Z" fill="#03113C"/>
<path d="M115.907 98.7732C112.647 100.344 111.957 105.505 114.716 107.749C115.468 108.366 117.286 108.871 119.292 109.039C122.175 109.264 122.865 109.096 124.62 107.749C126.375 106.459 126.626 105.898 126.626 103.654C126.563 100.849 125.874 99.6147 123.68 98.6049C121.862 97.7073 117.913 97.8195 115.907 98.7732ZM119.605 98.9976C116.972 99.5025 115.468 100.456 114.716 102.139C114.34 102.812 114.151 102.925 114.151 102.42C114.089 100.456 117.098 98.4927 120.044 98.5488C121.799 98.6049 121.737 98.661 119.605 98.9976ZM115.28 106.347C115.969 107.693 115.969 107.693 115.092 106.683C114.528 106.066 114.089 105.337 114.089 105C114.089 104.327 114.402 104.608 115.28 106.347Z" fill="#03113C"/>
<path d="M31.97 103.486V109.152H34.3521C37.7998 109.152 41.2476 108.142 41.9998 106.908C42.3133 106.347 42.6267 104.776 42.6267 103.373C42.6267 99.9513 40.9968 98.7171 35.9192 98.1561L31.97 97.7634V103.486ZM39.6804 99.4464C39.8685 99.7269 38.4894 99.783 36.6715 99.7269L33.2864 99.5025L33.0356 103.934L32.8476 108.31L32.7222 103.654L32.5968 99.0537H35.9819C37.8625 99.0537 39.555 99.222 39.6804 99.4464Z" fill="#03113C"/>
<path d="M169.254 100.456V102.981H172.953C177.341 102.981 180.099 101.522 178.908 99.783C178.093 98.6049 176.15 98.0439 172.263 97.9878L169.254 97.9317V100.456ZM174.144 99.4464C170.822 99.6708 170.571 99.783 170.32 101.185C170.069 102.588 170.069 102.532 169.944 100.849L169.881 99.0537L173.831 99.1659L177.717 99.2781L174.144 99.4464Z" fill="#03113C"/>
<path d="M97.1023 123.12C95.6605 124.467 95.2844 125.252 95.2844 127.272C95.2844 129.404 95.5979 130.021 97.2277 131.255C100.676 133.892 106.819 132.882 108.449 129.404C110.392 125.196 107.383 121.494 102.055 121.494C99.4845 121.494 98.6695 121.774 97.1023 123.12ZM101.553 122.672C96.7889 123.513 95.0964 126.879 97.8546 130.245L99.171 131.872L97.5412 130.301C93.9053 126.823 96.7889 122.055 102.493 122.167C103.935 122.167 103.684 122.279 101.553 122.672Z" fill="#03113C"/>
<path d="M123.493 123.738V126.038L128.382 125.869L133.209 125.701V124.018C133.209 122.111 132.018 121.662 126.815 121.55L123.493 121.494V123.738ZM128.382 123.008C125.311 123.177 124.809 123.401 124.559 124.467C124.308 125.477 124.245 125.421 124.182 124.13C124.12 122.616 124.12 122.616 128.069 122.728L131.956 122.84L128.382 123.008Z" fill="#03113C"/>
</svg>
